<?xml version="1.0" standalone="no"?><!DOCTYPE svg PUBLIC "-//W3C//DTD SVG 1.1//EN" "http://www.w3.org/Graphics/SVG/1.1/DTD/svg11.dtd"><svg t="1650618804798" class="icon" viewBox="0 0 1024 1024" version="1.1" xmlns="http://www.w3.org/2000/svg" p-id="1424" xmlns:xlink="http://www.w3.org/1999/xlink" width="200" height="200"><defs><style type="text/css">@font-face { font-family: element-icons; src: url("chrome-extension://moombeodfomdpjnpocobemoiaemednkg/fonts/element-icons.woff") format("woff"), url("chrome-extension://moombeodfomdpjnpocobemoiaemednkg/fonts/element-icons.ttf ") format("truetype"); }
@font-face { font-family: feedback-iconfont; src: url("//at.alicdn.com/t/font_1031158_u69w8yhxdu.woff2?t=1630033759944") format("woff2"), url("//at.alicdn.com/t/font_1031158_u69w8yhxdu.woff?t=1630033759944") format("woff"), url("//at.alicdn.com/t/font_1031158_u69w8yhxdu.ttf?t=1630033759944") format("truetype"); }
</style></defs><path d="M658.9952 649.216m-212.7872 0a212.7872 212.7872 0 1 0 425.5744 0 212.7872 212.7872 0 1 0-425.5744 0Z" fill="#E03B5D" p-id="1425"></path><path d="M728.064 121.5488H306.176c-87.5008 0-158.72 71.2192-158.72 158.72v457.1136c0 87.5008 71.2192 158.72 158.72 158.72h421.888c87.5008 0 158.72-71.2192 158.72-158.72V280.2688c0-87.5008-71.2192-158.72-158.72-158.72z m-149.0432 51.2v265.6768L494.848 372.0192a50.66752 50.66752 0 0 0-31.488-10.9568c-11.1104 0-22.2208 3.6352-31.488 10.9568L347.648 438.4256V172.7488h231.3728z m256.5632 564.6336c0 59.2896-48.2304 107.52-107.52 107.52H306.176c-59.2896 0-107.52-48.2304-107.52-107.52V280.2688c0-56.0128 43.0592-102.0928 97.792-107.008v299.4176a34.3552 34.3552 0 0 0 19.5072 31.1296c12.032 5.8368 26.0096 4.3008 36.5056-3.9424l110.6432-87.6032 111.0528 87.6032c6.2464 4.9152 13.7728 7.4752 21.3504 7.4752 5.12 0 10.2912-1.1776 15.1552-3.5328a34.3552 34.3552 0 0 0 19.5072-31.1296V172.7488h97.8432c59.2896 0 107.52 48.2304 107.52 107.52v457.1136z" fill="#231815" p-id="1426"></path></svg>