<?xml version="1.0" standalone="no"?><!DOCTYPE svg PUBLIC "-//W3C//DTD SVG 1.1//EN" "http://www.w3.org/Graphics/SVG/1.1/DTD/svg11.dtd"><svg t="1650622171158" class="icon" viewBox="0 0 1024 1024" version="1.1" xmlns="http://www.w3.org/2000/svg" p-id="1404" xmlns:xlink="http://www.w3.org/1999/xlink" width="200" height="200"><defs><style type="text/css">@font-face { font-family: element-icons; src: url("chrome-extension://moombeodfomdpjnpocobemoiaemednkg/fonts/element-icons.woff") format("woff"), url("chrome-extension://moombeodfomdpjnpocobemoiaemednkg/fonts/element-icons.ttf ") format("truetype"); }
@font-face { font-family: feedback-iconfont; src: url("//at.alicdn.com/t/font_1031158_u69w8yhxdu.woff2?t=1630033759944") format("woff2"), url("//at.alicdn.com/t/font_1031158_u69w8yhxdu.woff?t=1630033759944") format("woff"), url("//at.alicdn.com/t/font_1031158_u69w8yhxdu.ttf?t=1630033759944") format("truetype"); }
</style></defs><path d="M512.07 85.32c-235.61 0-426.6 191-426.6 426.6 0 235.61 191 426.6 426.6 426.6s426.6-191 426.6-426.6c0.01-235.6-190.99-426.6-426.6-426.6z m0 767.89c-188.18 0-341.28-153.1-341.28-341.28 0-188.19 153.1-341.28 341.28-341.28s341.28 153.1 341.28 341.28c0.01 188.18-153.09 341.28-341.28 341.28z" fill="#231815" p-id="1405"></path><path d="M512.07 256.05c-94.28 0-170.64 76.36-170.64 170.64 0 23.46 19.2 42.66 42.66 42.66s42.66-19.2 42.66-42.66c0-47.35 38.4-85.32 85.32-85.32s85.32 37.97 85.32 85.32c0 46.93-38.4 85.32-85.32 85.32-23.47 0-42.66 19.2-42.66 42.66v42.66c0 23.46 19.2 42.66 42.66 42.66 23.47 0 42.66-19.2 42.66-42.66v-5.55c73.8-19.2 127.98-86.17 127.98-165.1 0.01-94.26-76.36-170.63-170.64-170.63z" fill="#E03B5D" p-id="1406"></path><path d="M512.07 725.23m-42.66 0a42.66 42.66 0 1 0 85.32 0 42.66 42.66 0 1 0-85.32 0Z" fill="#E03B5D" p-id="1407"></path></svg>